<?xml version="1.0" encoding="UTF-8" standalone="no"?>
<svg
   xmlns:dc="http://purl.org/dc/elements/1.1/"
   xmlns:cc="http://creativecommons.org/ns#"
   xmlns:rdf="http://www.w3.org/1999/02/22-rdf-syntax-ns#"
   xmlns:svg="http://www.w3.org/2000/svg"
   xmlns="http://www.w3.org/2000/svg"
   xmlns:sodipodi="http://sodipodi.sourceforge.net/DTD/sodipodi-0.dtd"
   xmlns:inkscape="http://www.inkscape.org/namespaces/inkscape"
   width="188.3"
   height="37"
   viewBox="0 0 188.3 37"
   version="1.1"
   id="svg76"
   sodipodi:docname="logo-stackoverflow.svg"
   inkscape:version="0.92.4 5da689c313, 2019-01-14">
  <metadata
     id="metadata82">
    <rdf:RDF>
      <cc:Work
         rdf:about="">
        <dc:format>image/svg+xml</dc:format>
        <dc:type
           rdf:resource="http://purl.org/dc/dcmitype/StillImage" />
        <dc:title></dc:title>
      </cc:Work>
    </rdf:RDF>
  </metadata>
  <defs
     id="defs80" />
  <sodipodi:namedview
     pagecolor="#ffffff"
     bordercolor="#666666"
     borderopacity="1"
     objecttolerance="10"
     gridtolerance="10"
     guidetolerance="10"
     inkscape:pageopacity="0"
     inkscape:pageshadow="2"
     inkscape:window-width="1610"
     inkscape:window-height="927"
     id="namedview78"
     showgrid="false"
     fit-margin-top="0"
     fit-margin-left="0"
     fit-margin-right="0"
     fit-margin-bottom="0"
     inkscape:zoom="5.0378023"
     inkscape:cx="58.311896"
     inkscape:cy="22.077353"
     inkscape:window-x="0"
     inkscape:window-y="0"
     inkscape:window-maximized="0"
     inkscape:current-layer="svg76" />
  <path
     style="fill:#222426"
     inkscape:connector-curvature="0"
     id="path68"
     d="m 41.8,23.4 -2.2,-0.2 c -1.7,-0.1 -2.3,-0.8 -2.3,-2 0,-1.4 1,-2.2 3,-2.2 1.3,-0.1 2.6,0.3 3.6,1.1 l 1.3,-1.3 c -1.4,-1 -3.1,-1.5 -4.8,-1.4 -2.9,0 -4.9,1.5 -4.9,3.9 0,2.2 1.4,3.4 4,3.6 l 2.2,0.2 c 1.6,0.1 2.2,0.8 2.2,2 0,1.6 -1.4,2.4 -3.6,2.4 -1.6,0.1 -3.1,-0.5 -4.2,-1.6 l -1.3,1.3 c 1.5,1.4 3.5,2 5.5,1.9 3.2,0 5.5,-1.5 5.5,-4.1 0,-2.6 -1.6,-3.4 -4,-3.6 z m 16.8,-6.1 c -2.2,0 -3.5,0.4 -4.7,1.9 l 1.3,1.3 c 0.8,-1.1 2.1,-1.7 3.4,-1.5 2.5,0 3.4,1 3.4,2.9 v 1.3 h -4 c -3,0 -4.6,1.5 -4.6,3.9 0,1 0.3,2 1,2.7 0.8,0.9 1.9,1.2 3.8,1.2 1.4,0.1 2.9,-0.4 3.9,-1.4 v 1.3 h 2 V 21.8 C 64,18.9 62.2,17.3 58.6,17.3 Z m 3.4,8.9 c 0.1,0.8 -0.1,1.7 -0.7,2.3 a 4,4 0 0 1 -3,0.9 c -2.1,0 -3.1,-0.7 -3.1,-2.3 0,-1.6 1,-2.4 3,-2.4 H 62 Z m 9.7,-7.1 c 1.2,0 2.4,0.5 3.1,1.5 l 1.3,-1.3 a 5.4,5.4 0 0 0 -4.4,-2 c -3.4,0 -5.9,2.3 -5.9,6.9 0,4.6 2.6,6.9 5.9,6.9 1.7,0.1 3.3,-0.7 4.4,-2 l -1.3,-1.3 c -0.7,1 -1.9,1.5 -3.1,1.5 -1.2,0.1 -2.4,-0.5 -3.1,-1.5 -0.7,-1.1 -1,-2.3 -0.9,-3.6 -0.1,-1.3 0.2,-2.5 0.9,-3.6 0.7,-1 1.9,-1.6 3.1,-1.5 z M 88.5,17.5 H 86.1 L 80,23.4 V 11.5 h -2 v 19.4 h 2 V 26 l 2.4,-2.4 4.5,7.3 h 2.4 l -5.6,-8.6 z m 9.2,-0.7 c -1.6,-0.1 -3.2,0.5 -4.3,1.7 -1.3,1.3 -1.6,2.9 -1.6,5.4 0,2.5 0.3,4.1 1.6,5.4 1.1,1.1 2.7,1.7 4.3,1.7 1.6,0.1 3.2,-0.5 4.3,-1.7 1.3,-1.3 1.6,-2.9 1.6,-5.4 0,-2.5 -0.3,-4.1 -1.6,-5.4 a 5.38,5.38 0 0 0 -4.3,-1.7 z m 1.7,10.5 c -0.9,0.8 -2.3,0.8 -3.2,0 -0.7,-0.7 -0.8,-2 -0.8,-3.4 0,-1.4 0.1,-2.7 0.8,-3.4 0.9,-0.8 2.3,-0.8 3.2,0 0.7,0.7 0.8,1.9 0.8,3.4 0,1.5 -0.1,2.7 -0.8,3.4 z m 13.6,-10.4 -2.8,8.6 -2.8,-8.6 h -3.7 l 5.2,14 h 2.7 l 5.1,-14 z m 9.6,-0.1 c -3.6,0 -6.1,2.6 -6.1,7.1 0,5.7 3.2,7.2 6.5,7.2 2,0.1 4,-0.7 5.3,-2.2 l -2.1,-2.1 c -0.8,0.9 -2,1.4 -3.2,1.3 -1.6,0.1 -3,-1.1 -3.1,-2.7 V 25 h 8.7 v -1.6 c 0.1,-3.8 -2.1,-6.6 -6,-6.6 z m -2.7,5.8 c 0,-0.5 0.1,-1 0.3,-1.5 0.4,-0.9 1.3,-1.4 2.3,-1.4 1,-0.1 1.9,0.5 2.3,1.4 0.2,0.5 0.3,1 0.3,1.5 z m 13.9,-4.3 V 17 h -3.4 v 14 h 3.5 v -8.4 c -0.1,-1.3 0.8,-2.4 2.1,-2.6 h 0.2 c 0.7,0 1.4,0.3 1.8,0.8 l 2.6,-2.6 a 4.1,4.1 0 0 0 -3.3,-1.3 c -1.3,-0.1 -2.6,0.4 -3.5,1.4 z m 7.9,-2.8 v 15.4 h 3.5 v -11 h 2.6 v -2.7 h -2.6 v -1.5 c -0.1,-0.6 0.3,-1.2 0.9,-1.3 h 1.6 v -3 h -2 a 3.9,3.9 0 0 0 -4,3.8 z m 20.4,1.3 c -1.6,-0.1 -3.2,0.5 -4.3,1.7 -1.3,1.3 -1.6,2.9 -1.6,5.4 0,2.5 0.3,4.1 1.6,5.4 1.1,1.1 2.7,1.7 4.3,1.7 1.6,0.1 3.2,-0.5 4.3,-1.7 1.3,-1.3 1.6,-2.9 1.6,-5.4 0,-2.5 -0.3,-4.1 -1.6,-5.4 a 5.38,5.38 0 0 0 -4.3,-1.7 z m 1.7,10.5 c -0.9,0.8 -2.3,0.8 -3.2,0 -0.7,-0.7 -0.8,-2 -0.8,-3.4 0,-1.4 0.1,-2.7 0.8,-3.4 0.9,-0.8 2.3,-0.8 3.2,0 0.7,0.7 0.8,1.9 0.8,3.4 0,1.5 -0.1,2.7 -0.8,3.4 z m 20.7,-10.4 -2.3,8.6 -2.9,-8.6 h -2.5 L 174,25.6 171.7,17 H 168 l 4.3,14 h 2.9 l 2.9,-8.8 2.9,8.8 h 3 l 4.3,-14 z m -31.6,9.8 V 11.5 h -3.5 v 15.4 a 3.8,3.8 0 0 0 3.6,4 h 2.5 v -3 h -1.3 c -0.6,0.1 -1.1,-0.2 -1.3,-0.8 z M 53,17.8 h -3.7 v -4.4 h -2 v 13.9 c 0,2 1.1,3.6 3.4,3.6 h 1.4 v -1.7 h -1 c -1.3,0 -1.8,-0.7 -1.8,-2 v -7.7 h 1.9 z" />
  <path
     style="fill:#bcbbbb"
     inkscape:connector-curvature="0"
     id="path70"
     d="m 26,33 v -9 h 4 V 37 H 0 V 24 h 4 v 9" />
  <path
     style="fill:#f48024"
     inkscape:connector-curvature="0"
     id="path72"
     d="M 23.09,25.99 23.79,23.04 7.68,19.69 7,23 Z M 9.1,15.2 l 15,7 1.4,-3 -15,-7 z M 13.3,7.8 26,18.4 28.1,15.9 15.4,5.3 Z m 8.2,-7.8 -2.7,2 9.9,13.3 2.7,-2 z M 7,30 H 23 V 27 H 7 Z" />
</svg>
